<svg xmlns="http://www.w3.org/2000/svg" xmlns:xlink="http://www.w3.org/1999/xlink" width="181" zoomAndPan="magnify" viewBox="0 0 135.75 56.999997" height="76" preserveAspectRatio="xMidYMid meet" version="1.0"><defs><g/><clipPath id="3375624146"><path d="M 30.582031 9.527344 L 134.832031 9.527344 L 134.832031 27 L 30.582031 27 Z M 30.582031 9.527344 " clip-rule="nonzero"/></clipPath><clipPath id="bd8f22fc0a"><path d="M 30.582031 40 L 134.832031 40 L 134.832031 56.777344 L 30.582031 56.777344 Z M 30.582031 40 " clip-rule="nonzero"/></clipPath><clipPath id="a0cf6f5fdf"><path d="M 24.792969 9.621094 L 40.835938 9.621094 L 40.835938 55.550781 L 24.792969 55.550781 Z M 24.792969 9.621094 " clip-rule="nonzero"/></clipPath><clipPath id="3e71678dd1"><path d="M 37.582031 19.671875 L 50.261719 19.671875 L 50.261719 25.484375 L 37.582031 25.484375 Z M 37.582031 19.671875 " clip-rule="nonzero"/></clipPath><clipPath id="7f3a9cd5f1"><path d="M 31 0.0507812 L 35 0.0507812 L 35 14 L 31 14 Z M 31 0.0507812 " clip-rule="nonzero"/></clipPath></defs><g clip-path="url(#3375624146)"><path fill="#2b2929" d="M 31.542969 26.234375 L 31.542969 10.246094 L 133.871094 10.246094 L 133.871094 26.234375 L 134.832031 26.234375 L 134.832031 9.53125 L 30.582031 9.53125 L 30.582031 26.234375 L 31.542969 26.234375 " fill-opacity="1" fill-rule="nonzero"/></g><g clip-path="url(#bd8f22fc0a)"><path fill="#2b2929" d="M 133.871094 40.074219 L 133.871094 56.0625 L 31.542969 56.0625 L 31.542969 40.074219 L 30.582031 40.074219 L 30.582031 56.777344 L 134.832031 56.777344 L 134.832031 40.074219 L 133.871094 40.074219 " fill-opacity="1" fill-rule="nonzero"/></g><path fill="#0097b2" d="M 26.632812 10.878906 C 26.277344 9.949219 25.8125 8.769531 23.441406 7.027344 C 23.140625 6.8125 22.84375 6.628906 22.535156 6.464844 C 20.71875 5.476562 18.605469 5.253906 16.648438 5.667969 C 14.699219 6.09375 12.914062 7.160156 11.746094 8.769531 C 11.5625 9.03125 11.390625 9.300781 11.234375 9.582031 C 10.714844 10.550781 10.347656 11.429688 10.164062 12.449219 C 9.992188 13.496094 10 14.695312 10.261719 16.300781 C 10.308594 16.632812 10.378906 16.960938 10.472656 17.289062 C 10.558594 17.609375 10.65625 17.910156 10.761719 18.171875 L 10.917969 18.566406 L 10.636719 18.878906 C 9.644531 19.980469 8.535156 21.289062 7.511719 22.808594 C 6.488281 24.320312 5.554688 26.042969 4.886719 28 C 4.644531 28.71875 4.445312 29.460938 4.28125 30.246094 C 3.679688 33.125 3.691406 36.359375 4.722656 39.15625 C 5.738281 41.90625 7.753906 44.25 11.179688 45.421875 C 11.699219 45.605469 12.257812 45.761719 12.847656 45.878906 C 13.328125 45.984375 13.820312 46.0625 14.3125 46.109375 C 16.445312 46.3125 18.605469 45.992188 20.382812 44.832031 C 22.15625 43.660156 23.574219 41.636719 24.242188 38.410156 C 24.375 37.792969 24.472656 37.121094 24.539062 36.414062 C 25.246094 29.269531 25.148438 25.898438 25.089844 23.777344 L 25.082031 23.402344 C 25.050781 22.21875 26.171875 21.464844 27.320312 20.699219 C 27.90625 20.300781 28.496094 19.914062 28.824219 19.507812 C 29.289062 18.957031 29.761719 17.882812 29.914062 16.71875 C 30.039062 15.828125 29.980469 14.898438 29.597656 14.164062 C 29.480469 13.941406 29.394531 13.8125 29.25 13.6875 C 29.066406 13.523438 28.746094 13.308594 28.179688 12.953125 C 27.203125 12.332031 26.953125 11.683594 26.632812 10.878906 Z M 24.230469 5.921875 C 26.933594 7.898438 27.472656 9.300781 27.898438 10.386719 C 28.121094 10.957031 28.304688 11.421875 28.902344 11.800781 C 29.527344 12.195312 29.886719 12.429688 30.144531 12.660156 C 30.445312 12.933594 30.601562 13.15625 30.792969 13.53125 C 31.332031 14.550781 31.417969 15.761719 31.265625 16.902344 C 31.0625 18.316406 30.472656 19.664062 29.867188 20.390625 C 29.414062 20.933594 28.738281 21.386719 28.070312 21.832031 C 27.242188 22.382812 26.421875 22.933594 26.433594 23.371094 L 26.449219 23.738281 C 26.507812 25.890625 26.597656 29.316406 25.890625 36.542969 C 25.824219 37.304688 25.707031 38.023438 25.574219 38.691406 C 24.832031 42.3125 23.191406 44.617188 21.125 45.972656 C 19.070312 47.320312 16.601562 47.699219 14.179688 47.464844 C 13.636719 47.40625 13.097656 47.320312 12.566406 47.214844 C 11.921875 47.078125 11.3125 46.914062 10.742188 46.71875 C 6.875 45.394531 4.597656 42.738281 3.449219 39.628906 C 2.320312 36.570312 2.3125 33.066406 2.949219 29.964844 C 3.121094 29.125 3.34375 28.320312 3.605469 27.566406 C 4.308594 25.472656 5.300781 23.644531 6.382812 22.046875 C 7.355469 20.601562 8.398438 19.351562 9.355469 18.269531 C 9.277344 18.066406 9.210938 17.851562 9.152344 17.648438 C 9.066406 17.300781 8.976562 16.921875 8.921875 16.515625 C 8.628906 14.742188 8.621094 13.398438 8.824219 12.214844 C 9.035156 11.023438 9.460938 10.027344 10.039062 8.933594 C 10.222656 8.59375 10.425781 8.273438 10.648438 7.964844 C 12.015625 6.074219 14.101562 4.828125 16.367188 4.332031 C 18.625 3.847656 21.066406 4.121094 23.179688 5.261719 C 23.546875 5.457031 23.894531 5.679688 24.230469 5.921875 " fill-opacity="1" fill-rule="nonzero"/><path fill="#0097b2" d="M 14.574219 25.316406 C 14.574219 25.316406 14.902344 24.164062 15.992188 24.503906 C 18.886719 25.40625 19.910156 26.625 23.5 26.546875 C 26.742188 26.46875 30.300781 25.261719 31.34375 26.21875 C 32.382812 27.167969 32 30.867188 29.027344 32.503906 C 26.054688 34.128906 12.925781 33.628906 14.574219 25.316406 " fill-opacity="1" fill-rule="evenodd"/><path fill="#0097b2" d="M 16.425781 39.5625 C 16.425781 39.5625 24.328125 40.8125 24.964844 39.765625 C 25.195312 39.390625 25.882812 38.710938 26.449219 38.363281 C 27.433594 37.742188 28.796875 38.226562 29.421875 38.777344 C 30.40625 39.648438 31.273438 44.425781 28.03125 46.410156 C 24.78125 48.386719 17.796875 48.617188 14.429688 46.875 C 9.847656 44.519531 13.019531 38.421875 16.425781 39.5625 " fill-opacity="1" fill-rule="evenodd"/><path fill="#0097b2" d="M 19.300781 15.335938 C 20.730469 17.648438 22.988281 17.339844 23.371094 16.226562 C 23.421875 16.078125 23.449219 15.875 23.46875 15.625 C 23.304688 15.769531 23.09375 15.847656 22.851562 15.847656 C 22.148438 15.847656 21.472656 15.128906 21.355469 14.238281 C 21.230469 13.347656 21.703125 12.632812 22.410156 12.632812 C 23.027344 12.632812 23.613281 13.175781 23.835938 13.902344 C 24.320312 12.808594 24.886719 12.292969 24.832031 11.625 C 24.695312 9.792969 22.515625 9.058594 20.941406 9.707031 C 19.195312 10.441406 17.875 13.03125 19.300781 15.335938 " fill-opacity="1" fill-rule="evenodd"/><path fill="#0097b2" d="M 9.132812 6.308594 C 11.507812 1.03125 18.839844 4.757812 17.265625 6.898438 C 17.101562 7.121094 16.589844 7.035156 15.867188 7.179688 C 14.4375 7.480469 13.484375 8.644531 13.070312 10.027344 C 12.925781 10.519531 12.894531 10.722656 12.636719 11.585938 C 12.480469 12.128906 12.164062 12.320312 11.410156 12.097656 C 9.566406 11.566406 8.175781 8.441406 9.132812 6.308594 " fill-opacity="1" fill-rule="evenodd"/><path fill="#0097b2" d="M 19.261719 4.554688 C 19.261719 4.554688 19.929688 2.085938 23.140625 2.734375 C 26.34375 3.382812 26.257812 5.882812 26.132812 7.09375 C 26.007812 8.292969 25.707031 8.304688 25.707031 8.304688 C 25.707031 8.304688 24.945312 6.707031 23.421875 5.804688 C 22.246094 5.117188 20.441406 5.195312 19.261719 4.554688 " fill-opacity="1" fill-rule="evenodd"/><path fill="#0097b2" d="M 29.847656 13.378906 C 29.847656 13.378906 27.976562 13.242188 27.742188 14.335938 C 27.511719 15.441406 29.210938 16.621094 29.933594 16.699219 C 30.667969 16.765625 30.6875 15.886719 30.6875 15.886719 L 29.847656 13.378906 " fill-opacity="1" fill-rule="evenodd"/><g clip-path="url(#a0cf6f5fdf)"><path fill="#0097b2" d="M 31.109375 23.632812 C 31.21875 23.382812 31.84375 22.878906 31.949219 22.636719 C 35.933594 12.960938 38.066406 9.726562 38.078125 9.71875 L 40.789062 11.769531 C 40.777344 11.78125 38.125 14.625 34.449219 23.4375 C 34.3125 23.789062 34.476562 24.359375 34.332031 24.71875 C 33.457031 24.339844 32.238281 23.886719 31.109375 23.632812 Z M 29.941406 26.597656 C 30.253906 25.785156 30.5625 25.007812 30.851562 24.273438 C 31.960938 24.496094 33.195312 24.96875 34.082031 25.347656 C 33.765625 26.140625 33.4375 26.964844 33.097656 27.847656 C 32.972656 27.371094 32.761719 26.992188 32.480469 26.769531 C 31.988281 26.382812 31.082031 26.414062 29.941406 26.597656 Z M 25.109375 49.148438 C 25.148438 48.65625 25.484375 48.230469 25.535156 47.699219 C 25.882812 43.949219 26.238281 39.136719 27.492188 34.226562 C 28.929688 34.121094 30.117188 33.820312 30.765625 33.414062 C 30.976562 33.277344 31.167969 33.132812 31.351562 32.976562 C 29.761719 38.429688 28.707031 43.621094 28.332031 47.765625 C 28.292969 48.21875 28.523438 48.871094 28.496094 49.296875 C 27.453125 49.148438 26.171875 49.042969 25.109375 49.148438 Z M 24.867188 55.550781 C 24.867188 55.542969 25.246094 54.019531 25.390625 51.28125 C 25.410156 50.875 25.03125 50.285156 25.0625 49.839844 C 26.085938 49.710938 27.394531 49.828125 28.449219 49.972656 C 28.417969 50.351562 28.1875 50.953125 28.167969 51.300781 C 28.015625 54.03125 28.265625 55.484375 28.265625 55.503906 L 24.867188 55.550781 " fill-opacity="1" fill-rule="nonzero"/></g><g clip-path="url(#3e71678dd1)"><path fill="#0097b2" d="M 37.699219 25.347656 C 37.699219 25.347656 37.699219 23.089844 38.511719 22.269531 C 39.332031 21.453125 41.53125 19.960938 45.503906 19.757812 C 49.492188 19.554688 50.261719 19.808594 50.261719 19.808594 C 50.261719 19.808594 43.875 22.933594 41.320312 24.320312 C 38.773438 25.707031 37.699219 25.347656 37.699219 25.347656 " fill-opacity="1" fill-rule="evenodd"/></g><path fill="#0097b2" d="M 35.183594 26.617188 C 35.183594 26.617188 36.589844 24.851562 37.738281 24.726562 C 38.898438 24.609375 41.53125 24.832031 44.761719 27.175781 C 47.984375 29.53125 48.429688 30.207031 48.429688 30.207031 C 48.429688 30.207031 41.5 28.628906 38.644531 28.097656 C 35.800781 27.566406 35.183594 26.617188 35.183594 26.617188 " fill-opacity="1" fill-rule="evenodd"/><path fill="#0097b2" d="M 31.363281 49.839844 C 31.363281 49.839844 32.269531 48.191406 33.195312 47.929688 C 34.121094 47.660156 36.332031 47.476562 39.320312 48.945312 C 42.3125 50.417969 42.765625 50.914062 42.765625 50.914062 C 42.765625 50.914062 36.839844 50.59375 34.421875 50.5625 C 32 50.535156 31.363281 49.839844 31.363281 49.839844 " fill-opacity="1" fill-rule="evenodd"/><path fill="#0097b2" d="M 30.800781 50.3125 C 30.800781 50.3125 30.367188 48.480469 30.871094 47.648438 C 31.378906 46.828125 32.875 45.191406 36.070312 44.25 C 39.261719 43.300781 39.9375 43.359375 39.9375 43.359375 C 39.9375 43.359375 35.355469 47.144531 33.550781 48.773438 C 31.746094 50.390625 30.800781 50.3125 30.800781 50.3125 " fill-opacity="1" fill-rule="evenodd"/><g clip-path="url(#7f3a9cd5f1)"><path fill="#0097b2" d="M 34.121094 13.804688 C 34.121094 13.804688 32.113281 12.785156 31.746094 11.691406 C 31.378906 10.589844 31.042969 7.957031 32.644531 4.285156 C 34.246094 0.625 34.816406 0.0546875 34.816406 0.0546875 C 34.816406 0.0546875 34.75 7.179688 34.835938 10.085938 C 34.921875 13 34.121094 13.804688 34.121094 13.804688 " fill-opacity="1" fill-rule="evenodd"/></g><path fill="#0097b2" d="M 9.140625 17.589844 C 9.054688 17.234375 9.277344 16.855469 9.644531 16.765625 C 10 16.679688 10.378906 16.902344 10.464844 17.269531 C 10.773438 18.511719 11.601562 19.644531 12.671875 20.523438 C 13.851562 21.484375 15.289062 22.132812 16.628906 22.285156 C 16.996094 22.335938 17.265625 22.664062 17.226562 23.042969 C 17.179688 23.421875 16.839844 23.691406 16.476562 23.644531 C 14.882812 23.457031 13.183594 22.703125 11.816406 21.582031 C 10.53125 20.535156 9.527344 19.148438 9.140625 17.589844 " fill-opacity="1" fill-rule="nonzero"/><path fill="#0097b2" d="M 3.46875 37.101562 C 3.46875 37.101562 2.148438 36.078125 1.769531 35.863281 C 1.386719 35.652344 0.113281 38.507812 2.148438 40.773438 C 4.191406 43.039062 5.320312 41.839844 5.320312 41.839844 L 3.46875 37.101562 " fill-opacity="1" fill-rule="evenodd"/><path fill="#0097b2" d="M 32.25 40.230469 C 32.25 40.230469 31.816406 38.402344 32.316406 37.578125 C 32.828125 36.746094 34.324219 35.117188 37.515625 34.167969 C 40.710938 33.230469 41.386719 33.289062 41.386719 33.289062 C 41.386719 33.289062 36.804688 37.074219 35 38.691406 C 33.195312 40.320312 32.25 40.230469 32.25 40.230469 " fill-opacity="1" fill-rule="evenodd"/><path fill="#0097b2" d="M 25.449219 23.195312 C 26.847656 22.683594 33.242188 21.28125 30.707031 25.726562 C 30.050781 26.875 25.410156 26.894531 25.410156 26.894531 L 25.449219 23.195312 " fill-opacity="1" fill-rule="evenodd"/><path fill="#0097b2" d="M 26.179688 19.808594 C 26.015625 19.710938 25.96875 19.5 26.054688 19.34375 C 26.152344 19.179688 26.363281 19.121094 26.527344 19.21875 C 26.527344 19.21875 27.550781 19.828125 28.457031 19.691406 C 29.160156 19.59375 29.171875 19.757812 29.171875 19.769531 C 29.171875 19.574219 29.328125 19.429688 29.507812 19.429688 C 29.703125 19.429688 29.847656 19.574219 29.847656 19.769531 C 29.847656 19.769531 29.867188 20.175781 28.542969 20.371094 C 27.40625 20.535156 26.179688 19.808594 26.179688 19.808594 " fill-opacity="1" fill-rule="nonzero"/><path fill="#0097b2" d="M 26.914062 53.546875 C 26.914062 53.539062 28.207031 51.347656 29.691406 50.351562 C 31.179688 49.34375 31.679688 49.285156 31.679688 49.285156 L 31.785156 49.964844 C 31.777344 49.964844 31.429688 50.003906 30.070312 50.914062 C 28.71875 51.832031 27.492188 53.894531 27.492188 53.894531 L 26.914062 53.546875 " fill-opacity="1" fill-rule="nonzero"/><path fill="#0097b2" d="M 33.9375 28.738281 C 33.839844 28.890625 33.628906 28.949219 33.464844 28.851562 C 33.3125 28.746094 33.253906 28.542969 33.347656 28.378906 C 33.359375 28.378906 34.652344 26.191406 36.136719 25.183594 C 37.625 24.175781 38.125 24.117188 38.125 24.117188 C 38.308594 24.085938 38.480469 24.222656 38.511719 24.40625 C 38.539062 24.589844 38.414062 24.765625 38.230469 24.796875 C 38.222656 24.796875 37.875 24.832031 36.515625 25.746094 C 35.164062 26.664062 33.9375 28.726562 33.9375 28.738281 " fill-opacity="1" fill-rule="nonzero"/><path fill="#0097b2" d="M 8.0625 20.894531 C 8.0625 20.894531 9.054688 22.230469 11.882812 23.042969 C 14.71875 23.847656 17.015625 23.960938 16.964844 23.496094 C 16.929688 23.042969 13.734375 22.074219 13.542969 21.929688 C 13.359375 21.785156 10.425781 19.5 10.289062 19.277344 C 10.144531 19.042969 9.992188 18.832031 9.992188 18.832031 L 8.0625 20.894531 " fill-opacity="1" fill-rule="evenodd"/><path fill="#0097b2" d="M 26.285156 21.425781 C 26.285156 21.425781 24.359375 22.742188 23.226562 22.972656 C 22.097656 23.207031 22.15625 23.363281 22.398438 23.613281 C 22.628906 23.875 24.445312 24.386719 25.128906 25.367188 C 25.804688 26.34375 25.757812 23.515625 25.757812 23.390625 C 25.765625 23.253906 26.285156 21.425781 26.285156 21.425781 " fill-opacity="1" fill-rule="evenodd"/><g fill="#141b2b" fill-opacity="1"><g transform="translate(42.956866, 28.794264)"><g><path d="M 3.492188 0 L 3.492188 -4.296875 L 6.140625 -4.296875 C 8.1875 -4.296875 9.660156 -5.582031 9.660156 -7.792969 C 9.660156 -10.21875 8.1875 -11.152344 6.140625 -11.152344 L 0.878906 -11.152344 L 0.878906 0 Z M 3.492188 -8.8125 L 5.773438 -8.8125 C 6.621094 -8.8125 7.074219 -8.433594 7.074219 -7.703125 C 7.074219 -6.941406 6.621094 -6.5625 5.773438 -6.5625 L 3.492188 -6.5625 Z M 3.492188 -8.8125 "/></g></g></g><g fill="#141b2b" fill-opacity="1"><g transform="translate(53.667456, 28.794264)"><g><path d="M 2.804688 0 L 3.40625 -2.003906 L 7.117188 -2.003906 L 7.71875 0 L 10.496094 0 L 6.679688 -11.152344 L 3.84375 -11.152344 L 0.0273438 0 Z M 5.261719 -8.246094 L 6.429688 -4.269531 L 4.09375 -4.269531 Z M 5.261719 -8.246094 "/></g></g></g><g fill="#141b2b" fill-opacity="1"><g transform="translate(64.918675, 28.794264)"><g><path d="M 3.492188 0 L 3.492188 -6.8125 L 7.777344 0 L 10.4375 0 L 10.4375 -11.152344 L 7.820312 -11.152344 L 7.820312 -4.386719 L 3.539062 -11.152344 L 0.878906 -11.152344 L 0.878906 0 Z M 3.492188 0 "/></g></g></g><g fill="#141b2b" fill-opacity="1"><g transform="translate(76.958917, 28.794264)"><g><path d="M 4.253906 0 C 8.054688 0 10.144531 -1.988281 10.144531 -5.597656 C 10.144531 -9.179688 8.054688 -11.152344 4.253906 -11.152344 L 0.878906 -11.152344 L 0.878906 0 Z M 3.492188 -8.8125 L 4.222656 -8.8125 C 6.257812 -8.8125 7.527344 -7.71875 7.527344 -5.597656 C 7.527344 -3.332031 6.375 -2.339844 4.222656 -2.339844 L 3.492188 -2.339844 Z M 3.492188 -8.8125 "/></g></g></g><g fill="#141b2b" fill-opacity="1"><g transform="translate(88.297805, 28.794264)"><g><path d="M 2.804688 0 L 3.40625 -2.003906 L 7.117188 -2.003906 L 7.71875 0 L 10.496094 0 L 6.679688 -11.152344 L 3.84375 -11.152344 L 0.0273438 0 Z M 5.261719 -8.246094 L 6.429688 -4.269531 L 4.09375 -4.269531 Z M 5.261719 -8.246094 "/></g></g></g><g fill="#141b2b" fill-opacity="1"><g transform="translate(78.107373, 41.454935)"><g><path d="M 5.496094 0.140625 C 7.765625 0.140625 9.269531 -1.097656 9.617188 -3.007812 L 8.601562 -3.007812 C 8.308594 -1.542969 7.125 -0.722656 5.46875 -0.722656 C 2.921875 -0.722656 1.65625 -2.714844 1.65625 -5.316406 C 1.65625 -7.90625 2.921875 -9.894531 5.46875 -9.894531 C 7.125 -9.894531 8.320312 -9.074219 8.601562 -7.808594 L 9.617188 -7.808594 C 9.28125 -9.53125 7.765625 -10.757812 5.496094 -10.757812 C 2.210938 -10.757812 0.695312 -8.195312 0.695312 -5.316406 C 0.695312 -2.433594 2.210938 0.140625 5.496094 0.140625 Z M 5.496094 0.140625 "/></g></g></g><g fill="#141b2b" fill-opacity="1"><g transform="translate(89.27808, 41.454935)"><g><path d="M 1.210938 0 L 2.28125 -2.867188 L 7.292969 -2.867188 L 8.363281 0 L 9.351562 0 L 5.34375 -10.617188 L 4.230469 -10.617188 L 0.222656 0 Z M 4.789062 -9.628906 L 6.984375 -3.730469 L 2.589844 -3.730469 Z M 4.789062 -9.628906 "/></g></g></g><g fill="#141b2b" fill-opacity="1"><g transform="translate(99.822808, 41.454935)"><g><path d="M 6.125 -4.800781 C 7.390625 -5.191406 8.140625 -6.179688 8.140625 -7.625 C 8.140625 -9.601562 6.820312 -10.617188 4.773438 -10.617188 L 1.097656 -10.617188 L 1.097656 0 L 2.058594 0 L 2.058594 -4.621094 L 4.773438 -4.621094 C 4.914062 -4.621094 5.050781 -4.621094 5.175781 -4.632812 L 7.179688 0 L 8.238281 0 Z M 2.058594 -5.457031 L 2.058594 -9.753906 L 4.648438 -9.753906 C 6.261719 -9.753906 7.195312 -8.960938 7.195312 -7.597656 C 7.195312 -6.21875 6.289062 -5.457031 4.648438 -5.457031 Z M 2.058594 -5.457031 "/></g></g></g><g fill="#141b2b" fill-opacity="1"><g transform="translate(109.685915, 41.454935)"><g><path d="M 4.882812 0 L 4.882812 -9.753906 L 8.628906 -9.753906 L 8.628906 -10.617188 L 0.195312 -10.617188 L 0.195312 -9.753906 L 3.925781 -9.753906 L 3.925781 0 Z M 4.882812 0 "/></g></g></g><g fill="#141b2b" fill-opacity="1"><g transform="translate(119.479467, 41.454935)"><g><path d="M 4.71875 0.140625 C 7.125 0.140625 8.40625 -1.113281 8.40625 -2.964844 C 8.40625 -5.21875 6.527344 -5.636719 4.800781 -6.011719 C 3.339844 -6.332031 1.976562 -6.636719 1.976562 -8.03125 C 1.976562 -9.183594 3.007812 -9.894531 4.453125 -9.894531 C 5.816406 -9.894531 6.847656 -9.335938 7.140625 -7.820312 L 8.058594 -7.820312 C 7.722656 -9.894531 6.316406 -10.757812 4.46875 -10.757812 C 2.492188 -10.757812 1.015625 -9.671875 1.015625 -7.960938 C 1.015625 -5.914062 2.753906 -5.539062 4.425781 -5.175781 C 5.96875 -4.84375 7.445312 -4.523438 7.445312 -2.921875 C 7.445312 -1.542969 6.472656 -0.722656 4.789062 -0.722656 C 3.367188 -0.722656 1.878906 -1.265625 1.574219 -3.007812 L 0.597656 -3.007812 C 0.945312 -0.765625 2.714844 0.140625 4.71875 0.140625 Z M 4.71875 0.140625 "/></g></g></g><g fill="#141b2b" fill-opacity="1"><g transform="translate(39.661235, 48.766102)"><g><path d="M 0.921875 -3.125 L 0.921875 -1.90625 L 2.375 -1.90625 L 2.375 -1.515625 L 0.921875 -1.515625 L 0.921875 0 L 0.453125 0 L 0.453125 -3.515625 L 2.609375 -3.515625 L 2.609375 -3.125 Z M 0.921875 -3.125 "/></g></g></g><g fill="#141b2b" fill-opacity="1"><g transform="translate(45.666151, 48.766102)"><g><path d="M 3.703125 -1.75 C 3.703125 -1.488281 3.660156 -1.25 3.578125 -1.03125 C 3.492188 -0.8125 3.375 -0.617188 3.21875 -0.453125 C 3.0625 -0.296875 2.875 -0.175781 2.65625 -0.09375 C 2.445312 -0.0078125 2.21875 0.03125 1.96875 0.03125 C 1.707031 0.03125 1.46875 -0.0078125 1.25 -0.09375 C 1.039062 -0.175781 0.859375 -0.296875 0.703125 -0.453125 C 0.554688 -0.617188 0.441406 -0.8125 0.359375 -1.03125 C 0.273438 -1.25 0.234375 -1.488281 0.234375 -1.75 C 0.234375 -2.019531 0.273438 -2.265625 0.359375 -2.484375 C 0.441406 -2.703125 0.554688 -2.890625 0.703125 -3.046875 C 0.859375 -3.210938 1.039062 -3.335938 1.25 -3.421875 C 1.46875 -3.503906 1.707031 -3.546875 1.96875 -3.546875 C 2.21875 -3.546875 2.445312 -3.503906 2.65625 -3.421875 C 2.875 -3.335938 3.0625 -3.210938 3.21875 -3.046875 C 3.375 -2.890625 3.492188 -2.703125 3.578125 -2.484375 C 3.660156 -2.265625 3.703125 -2.019531 3.703125 -1.75 Z M 3.203125 -1.75 C 3.203125 -1.96875 3.171875 -2.160156 3.109375 -2.328125 C 3.054688 -2.503906 2.972656 -2.648438 2.859375 -2.765625 C 2.753906 -2.890625 2.625 -2.984375 2.46875 -3.046875 C 2.320312 -3.109375 2.15625 -3.140625 1.96875 -3.140625 C 1.78125 -3.140625 1.609375 -3.109375 1.453125 -3.046875 C 1.296875 -2.984375 1.160156 -2.890625 1.046875 -2.765625 C 0.941406 -2.648438 0.859375 -2.503906 0.796875 -2.328125 C 0.742188 -2.160156 0.71875 -1.96875 0.71875 -1.75 C 0.71875 -1.539062 0.742188 -1.347656 0.796875 -1.171875 C 0.859375 -1.003906 0.941406 -0.859375 1.046875 -0.734375 C 1.160156 -0.617188 1.296875 -0.53125 1.453125 -0.46875 C 1.609375 -0.40625 1.78125 -0.375 1.96875 -0.375 C 2.15625 -0.375 2.320312 -0.40625 2.46875 -0.46875 C 2.625 -0.53125 2.753906 -0.617188 2.859375 -0.734375 C 2.972656 -0.859375 3.054688 -1.003906 3.109375 -1.171875 C 3.171875 -1.347656 3.203125 -1.539062 3.203125 -1.75 Z M 3.203125 -1.75 "/></g></g></g><g fill="#141b2b" fill-opacity="1"><g transform="translate(52.822652, 48.766102)"><g><path d="M 3.703125 -1.75 C 3.703125 -1.488281 3.660156 -1.25 3.578125 -1.03125 C 3.492188 -0.8125 3.375 -0.617188 3.21875 -0.453125 C 3.0625 -0.296875 2.875 -0.175781 2.65625 -0.09375 C 2.445312 -0.0078125 2.21875 0.03125 1.96875 0.03125 C 1.707031 0.03125 1.46875 -0.0078125 1.25 -0.09375 C 1.039062 -0.175781 0.859375 -0.296875 0.703125 -0.453125 C 0.554688 -0.617188 0.441406 -0.8125 0.359375 -1.03125 C 0.273438 -1.25 0.234375 -1.488281 0.234375 -1.75 C 0.234375 -2.019531 0.273438 -2.265625 0.359375 -2.484375 C 0.441406 -2.703125 0.554688 -2.890625 0.703125 -3.046875 C 0.859375 -3.210938 1.039062 -3.335938 1.25 -3.421875 C 1.46875 -3.503906 1.707031 -3.546875 1.96875 -3.546875 C 2.21875 -3.546875 2.445312 -3.503906 2.65625 -3.421875 C 2.875 -3.335938 3.0625 -3.210938 3.21875 -3.046875 C 3.375 -2.890625 3.492188 -2.703125 3.578125 -2.484375 C 3.660156 -2.265625 3.703125 -2.019531 3.703125 -1.75 Z M 3.203125 -1.75 C 3.203125 -1.96875 3.171875 -2.160156 3.109375 -2.328125 C 3.054688 -2.503906 2.972656 -2.648438 2.859375 -2.765625 C 2.753906 -2.890625 2.625 -2.984375 2.46875 -3.046875 C 2.320312 -3.109375 2.15625 -3.140625 1.96875 -3.140625 C 1.78125 -3.140625 1.609375 -3.109375 1.453125 -3.046875 C 1.296875 -2.984375 1.160156 -2.890625 1.046875 -2.765625 C 0.941406 -2.648438 0.859375 -2.503906 0.796875 -2.328125 C 0.742188 -2.160156 0.71875 -1.96875 0.71875 -1.75 C 0.71875 -1.539062 0.742188 -1.347656 0.796875 -1.171875 C 0.859375 -1.003906 0.941406 -0.859375 1.046875 -0.734375 C 1.160156 -0.617188 1.296875 -0.53125 1.453125 -0.46875 C 1.609375 -0.40625 1.78125 -0.375 1.96875 -0.375 C 2.15625 -0.375 2.320312 -0.40625 2.46875 -0.46875 C 2.625 -0.53125 2.753906 -0.617188 2.859375 -0.734375 C 2.972656 -0.859375 3.054688 -1.003906 3.109375 -1.171875 C 3.171875 -1.347656 3.203125 -1.539062 3.203125 -1.75 Z M 3.203125 -1.75 "/></g></g></g><g fill="#141b2b" fill-opacity="1"><g transform="translate(59.979152, 48.766102)"><g><path d="M 3.5 -1.75 C 3.5 -1.488281 3.457031 -1.25 3.375 -1.03125 C 3.289062 -0.820312 3.171875 -0.640625 3.015625 -0.484375 C 2.867188 -0.328125 2.6875 -0.207031 2.46875 -0.125 C 2.257812 -0.0390625 2.023438 0 1.765625 0 L 0.453125 0 L 0.453125 -3.515625 L 1.765625 -3.515625 C 2.023438 -3.515625 2.257812 -3.472656 2.46875 -3.390625 C 2.6875 -3.304688 2.867188 -3.1875 3.015625 -3.03125 C 3.171875 -2.875 3.289062 -2.6875 3.375 -2.46875 C 3.457031 -2.257812 3.5 -2.019531 3.5 -1.75 Z M 3 -1.75 C 3 -1.96875 2.96875 -2.160156 2.90625 -2.328125 C 2.851562 -2.503906 2.769531 -2.648438 2.65625 -2.765625 C 2.550781 -2.878906 2.421875 -2.96875 2.265625 -3.03125 C 2.117188 -3.09375 1.953125 -3.125 1.765625 -3.125 L 0.921875 -3.125 L 0.921875 -0.390625 L 1.765625 -0.390625 C 1.953125 -0.390625 2.117188 -0.421875 2.265625 -0.484375 C 2.421875 -0.546875 2.550781 -0.632812 2.65625 -0.75 C 2.769531 -0.863281 2.851562 -1.003906 2.90625 -1.171875 C 2.96875 -1.347656 3 -1.539062 3 -1.75 Z M 3 -1.75 "/></g></g></g><g fill="#141b2b" fill-opacity="1"><g transform="translate(66.939635, 48.766102)"><g><path d="M 2.25 -2.96875 C 2.226562 -2.9375 2.207031 -2.914062 2.1875 -2.90625 C 2.175781 -2.894531 2.160156 -2.890625 2.140625 -2.890625 C 2.109375 -2.890625 2.070312 -2.898438 2.03125 -2.921875 C 2 -2.953125 1.953125 -2.984375 1.890625 -3.015625 C 1.835938 -3.054688 1.769531 -3.085938 1.6875 -3.109375 C 1.613281 -3.140625 1.519531 -3.15625 1.40625 -3.15625 C 1.300781 -3.15625 1.207031 -3.140625 1.125 -3.109375 C 1.039062 -3.085938 0.972656 -3.050781 0.921875 -3 C 0.867188 -2.945312 0.828125 -2.890625 0.796875 -2.828125 C 0.765625 -2.765625 0.75 -2.691406 0.75 -2.609375 C 0.75 -2.515625 0.773438 -2.429688 0.828125 -2.359375 C 0.878906 -2.296875 0.941406 -2.242188 1.015625 -2.203125 C 1.097656 -2.160156 1.1875 -2.117188 1.28125 -2.078125 C 1.382812 -2.046875 1.488281 -2.007812 1.59375 -1.96875 C 1.695312 -1.9375 1.800781 -1.898438 1.90625 -1.859375 C 2.007812 -1.816406 2.097656 -1.757812 2.171875 -1.6875 C 2.253906 -1.613281 2.316406 -1.523438 2.359375 -1.421875 C 2.410156 -1.328125 2.4375 -1.207031 2.4375 -1.0625 C 2.4375 -0.914062 2.410156 -0.773438 2.359375 -0.640625 C 2.304688 -0.503906 2.226562 -0.382812 2.125 -0.28125 C 2.03125 -0.175781 1.910156 -0.09375 1.765625 -0.03125 C 1.617188 0.0195312 1.453125 0.046875 1.265625 0.046875 C 1.035156 0.046875 0.828125 0.00390625 0.640625 -0.078125 C 0.453125 -0.160156 0.289062 -0.273438 0.15625 -0.421875 L 0.296875 -0.640625 C 0.304688 -0.660156 0.320312 -0.675781 0.34375 -0.6875 C 0.363281 -0.695312 0.382812 -0.703125 0.40625 -0.703125 C 0.425781 -0.703125 0.445312 -0.691406 0.46875 -0.671875 C 0.5 -0.660156 0.53125 -0.640625 0.5625 -0.609375 C 0.601562 -0.585938 0.644531 -0.5625 0.6875 -0.53125 C 0.738281 -0.5 0.789062 -0.46875 0.84375 -0.4375 C 0.894531 -0.414062 0.957031 -0.394531 1.03125 -0.375 C 1.101562 -0.363281 1.1875 -0.359375 1.28125 -0.359375 C 1.394531 -0.359375 1.492188 -0.375 1.578125 -0.40625 C 1.671875 -0.4375 1.742188 -0.476562 1.796875 -0.53125 C 1.859375 -0.59375 1.90625 -0.660156 1.9375 -0.734375 C 1.976562 -0.816406 2 -0.90625 2 -1 C 2 -1.101562 1.972656 -1.1875 1.921875 -1.25 C 1.867188 -1.320312 1.800781 -1.378906 1.71875 -1.421875 C 1.644531 -1.472656 1.554688 -1.515625 1.453125 -1.546875 C 1.359375 -1.578125 1.257812 -1.609375 1.15625 -1.640625 C 1.050781 -1.671875 0.945312 -1.707031 0.84375 -1.75 C 0.738281 -1.800781 0.644531 -1.859375 0.5625 -1.921875 C 0.488281 -1.992188 0.425781 -2.082031 0.375 -2.1875 C 0.332031 -2.300781 0.3125 -2.4375 0.3125 -2.59375 C 0.3125 -2.71875 0.332031 -2.835938 0.375 -2.953125 C 0.425781 -3.066406 0.5 -3.164062 0.59375 -3.25 C 0.6875 -3.34375 0.800781 -3.414062 0.9375 -3.46875 C 1.070312 -3.519531 1.226562 -3.546875 1.40625 -3.546875 C 1.59375 -3.546875 1.765625 -3.515625 1.921875 -3.453125 C 2.085938 -3.398438 2.234375 -3.3125 2.359375 -3.1875 Z M 2.25 -2.96875 "/></g></g></g><g fill="#141b2b" fill-opacity="1"><g transform="translate(72.83184, 48.766102)"><g/></g></g><g fill="#141b2b" fill-opacity="1"><g transform="translate(77.320097, 48.766102)"><g><path d="M 2.3125 -1.3125 L 1.765625 -2.734375 C 1.742188 -2.773438 1.722656 -2.820312 1.703125 -2.875 C 1.691406 -2.9375 1.675781 -3 1.65625 -3.0625 C 1.625 -2.925781 1.59375 -2.816406 1.5625 -2.734375 L 1 -1.3125 Z M 3.3125 0 L 2.9375 0 C 2.894531 0 2.859375 -0.0078125 2.828125 -0.03125 C 2.804688 -0.0507812 2.789062 -0.078125 2.78125 -0.109375 L 2.453125 -0.96875 L 0.875 -0.96875 L 0.546875 -0.109375 C 0.535156 -0.078125 0.515625 -0.0507812 0.484375 -0.03125 C 0.453125 -0.0078125 0.414062 0 0.375 0 L 0.015625 0 L 1.421875 -3.515625 L 1.90625 -3.515625 Z M 3.3125 0 "/></g></g></g><g fill="#141b2b" fill-opacity="1"><g transform="translate(83.871399, 48.766102)"><g><path d="M 3.296875 -3.515625 L 3.296875 0 L 3.0625 0 C 3.019531 0 2.984375 -0.00390625 2.953125 -0.015625 C 2.929688 -0.0351562 2.910156 -0.0546875 2.890625 -0.078125 L 0.859375 -2.734375 C 0.859375 -2.691406 0.859375 -2.648438 0.859375 -2.609375 C 0.859375 -2.578125 0.859375 -2.539062 0.859375 -2.5 L 0.859375 0 L 0.453125 0 L 0.453125 -3.515625 L 0.6875 -3.515625 C 0.707031 -3.515625 0.722656 -3.515625 0.734375 -3.515625 C 0.753906 -3.515625 0.769531 -3.507812 0.78125 -3.5 C 0.789062 -3.488281 0.800781 -3.476562 0.8125 -3.46875 C 0.832031 -3.457031 0.847656 -3.445312 0.859375 -3.4375 L 2.890625 -0.78125 C 2.890625 -0.820312 2.882812 -0.863281 2.875 -0.90625 C 2.875 -0.945312 2.875 -0.988281 2.875 -1.03125 L 2.875 -3.515625 Z M 3.296875 -3.515625 "/></g></g></g><g fill="#141b2b" fill-opacity="1"><g transform="translate(90.846583, 48.766102)"><g><path d="M 3.5 -1.75 C 3.5 -1.488281 3.457031 -1.25 3.375 -1.03125 C 3.289062 -0.820312 3.171875 -0.640625 3.015625 -0.484375 C 2.867188 -0.328125 2.6875 -0.207031 2.46875 -0.125 C 2.257812 -0.0390625 2.023438 0 1.765625 0 L 0.453125 0 L 0.453125 -3.515625 L 1.765625 -3.515625 C 2.023438 -3.515625 2.257812 -3.472656 2.46875 -3.390625 C 2.6875 -3.304688 2.867188 -3.1875 3.015625 -3.03125 C 3.171875 -2.875 3.289062 -2.6875 3.375 -2.46875 C 3.457031 -2.257812 3.5 -2.019531 3.5 -1.75 Z M 3 -1.75 C 3 -1.96875 2.96875 -2.160156 2.90625 -2.328125 C 2.851562 -2.503906 2.769531 -2.648438 2.65625 -2.765625 C 2.550781 -2.878906 2.421875 -2.96875 2.265625 -3.03125 C 2.117188 -3.09375 1.953125 -3.125 1.765625 -3.125 L 0.921875 -3.125 L 0.921875 -0.390625 L 1.765625 -0.390625 C 1.953125 -0.390625 2.117188 -0.421875 2.265625 -0.484375 C 2.421875 -0.546875 2.550781 -0.632812 2.65625 -0.75 C 2.769531 -0.863281 2.851562 -1.003906 2.90625 -1.171875 C 2.96875 -1.347656 3 -1.539062 3 -1.75 Z M 3 -1.75 "/></g></g></g><g fill="#141b2b" fill-opacity="1"><g transform="translate(97.807069, 48.766102)"><g/></g></g><g fill="#141b2b" fill-opacity="1"><g transform="translate(102.295329, 48.766102)"><g><path d="M 2.25 -2.96875 C 2.226562 -2.9375 2.207031 -2.914062 2.1875 -2.90625 C 2.175781 -2.894531 2.160156 -2.890625 2.140625 -2.890625 C 2.109375 -2.890625 2.070312 -2.898438 2.03125 -2.921875 C 2 -2.953125 1.953125 -2.984375 1.890625 -3.015625 C 1.835938 -3.054688 1.769531 -3.085938 1.6875 -3.109375 C 1.613281 -3.140625 1.519531 -3.15625 1.40625 -3.15625 C 1.300781 -3.15625 1.207031 -3.140625 1.125 -3.109375 C 1.039062 -3.085938 0.972656 -3.050781 0.921875 -3 C 0.867188 -2.945312 0.828125 -2.890625 0.796875 -2.828125 C 0.765625 -2.765625 0.75 -2.691406 0.75 -2.609375 C 0.75 -2.515625 0.773438 -2.429688 0.828125 -2.359375 C 0.878906 -2.296875 0.941406 -2.242188 1.015625 -2.203125 C 1.097656 -2.160156 1.1875 -2.117188 1.28125 -2.078125 C 1.382812 -2.046875 1.488281 -2.007812 1.59375 -1.96875 C 1.695312 -1.9375 1.800781 -1.898438 1.90625 -1.859375 C 2.007812 -1.816406 2.097656 -1.757812 2.171875 -1.6875 C 2.253906 -1.613281 2.316406 -1.523438 2.359375 -1.421875 C 2.410156 -1.328125 2.4375 -1.207031 2.4375 -1.0625 C 2.4375 -0.914062 2.410156 -0.773438 2.359375 -0.640625 C 2.304688 -0.503906 2.226562 -0.382812 2.125 -0.28125 C 2.03125 -0.175781 1.910156 -0.09375 1.765625 -0.03125 C 1.617188 0.0195312 1.453125 0.046875 1.265625 0.046875 C 1.035156 0.046875 0.828125 0.00390625 0.640625 -0.078125 C 0.453125 -0.160156 0.289062 -0.273438 0.15625 -0.421875 L 0.296875 -0.640625 C 0.304688 -0.660156 0.320312 -0.675781 0.34375 -0.6875 C 0.363281 -0.695312 0.382812 -0.703125 0.40625 -0.703125 C 0.425781 -0.703125 0.445312 -0.691406 0.46875 -0.671875 C 0.5 -0.660156 0.53125 -0.640625 0.5625 -0.609375 C 0.601562 -0.585938 0.644531 -0.5625 0.6875 -0.53125 C 0.738281 -0.5 0.789062 -0.46875 0.84375 -0.4375 C 0.894531 -0.414062 0.957031 -0.394531 1.03125 -0.375 C 1.101562 -0.363281 1.1875 -0.359375 1.28125 -0.359375 C 1.394531 -0.359375 1.492188 -0.375 1.578125 -0.40625 C 1.671875 -0.4375 1.742188 -0.476562 1.796875 -0.53125 C 1.859375 -0.59375 1.90625 -0.660156 1.9375 -0.734375 C 1.976562 -0.816406 2 -0.90625 2 -1 C 2 -1.101562 1.972656 -1.1875 1.921875 -1.25 C 1.867188 -1.320312 1.800781 -1.378906 1.71875 -1.421875 C 1.644531 -1.472656 1.554688 -1.515625 1.453125 -1.546875 C 1.359375 -1.578125 1.257812 -1.609375 1.15625 -1.640625 C 1.050781 -1.671875 0.945312 -1.707031 0.84375 -1.75 C 0.738281 -1.800781 0.644531 -1.859375 0.5625 -1.921875 C 0.488281 -1.992188 0.425781 -2.082031 0.375 -2.1875 C 0.332031 -2.300781 0.3125 -2.4375 0.3125 -2.59375 C 0.3125 -2.71875 0.332031 -2.835938 0.375 -2.953125 C 0.425781 -3.066406 0.5 -3.164062 0.59375 -3.25 C 0.6875 -3.34375 0.800781 -3.414062 0.9375 -3.46875 C 1.070312 -3.519531 1.226562 -3.546875 1.40625 -3.546875 C 1.59375 -3.546875 1.765625 -3.515625 1.921875 -3.453125 C 2.085938 -3.398438 2.234375 -3.3125 2.359375 -3.1875 Z M 2.25 -2.96875 "/></g></g></g><g fill="#141b2b" fill-opacity="1"><g transform="translate(108.187537, 48.766102)"><g><path d="M 2.828125 -3.109375 L 1.6875 -3.109375 L 1.6875 0 L 1.21875 0 L 1.21875 -3.109375 L 0.078125 -3.109375 L 0.078125 -3.515625 L 2.828125 -3.515625 Z M 2.828125 -3.109375 "/></g></g></g><g fill="#141b2b" fill-opacity="1"><g transform="translate(114.314962, 48.766102)"><g><path d="M 1.8125 -0.375 C 1.957031 -0.375 2.085938 -0.398438 2.203125 -0.453125 C 2.316406 -0.503906 2.410156 -0.570312 2.484375 -0.65625 C 2.566406 -0.75 2.628906 -0.851562 2.671875 -0.96875 C 2.710938 -1.09375 2.734375 -1.226562 2.734375 -1.375 L 2.734375 -3.515625 L 3.203125 -3.515625 L 3.203125 -1.375 C 3.203125 -1.175781 3.171875 -0.988281 3.109375 -0.8125 C 3.046875 -0.632812 2.953125 -0.484375 2.828125 -0.359375 C 2.710938 -0.234375 2.566406 -0.132812 2.390625 -0.0625 C 2.210938 0.0078125 2.019531 0.046875 1.8125 0.046875 C 1.59375 0.046875 1.394531 0.0078125 1.21875 -0.0625 C 1.050781 -0.132812 0.90625 -0.234375 0.78125 -0.359375 C 0.65625 -0.484375 0.5625 -0.632812 0.5 -0.8125 C 0.4375 -0.988281 0.40625 -1.175781 0.40625 -1.375 L 0.40625 -3.515625 L 0.875 -3.515625 L 0.875 -1.375 C 0.875 -1.226562 0.894531 -1.09375 0.9375 -0.96875 C 0.976562 -0.851562 1.035156 -0.75 1.109375 -0.65625 C 1.191406 -0.570312 1.289062 -0.503906 1.40625 -0.453125 C 1.53125 -0.398438 1.664062 -0.375 1.8125 -0.375 Z M 1.8125 -0.375 "/></g></g></g><g fill="#141b2b" fill-opacity="1"><g transform="translate(121.152937, 48.766102)"><g><path d="M 0.921875 -3.125 L 0.921875 -1.90625 L 2.375 -1.90625 L 2.375 -1.515625 L 0.921875 -1.515625 L 0.921875 0 L 0.453125 0 L 0.453125 -3.515625 L 2.609375 -3.515625 L 2.609375 -3.125 Z M 0.921875 -3.125 "/></g></g></g><g fill="#141b2b" fill-opacity="1"><g transform="translate(127.157856, 48.766102)"><g><path d="M 0.921875 -3.125 L 0.921875 -1.90625 L 2.375 -1.90625 L 2.375 -1.515625 L 0.921875 -1.515625 L 0.921875 0 L 0.453125 0 L 0.453125 -3.515625 L 2.609375 -3.515625 L 2.609375 -3.125 Z M 0.921875 -3.125 "/></g></g></g></svg>